<svg width="6" height="8" viewBox="0 0 6 8" fill="none" xmlns="http://www.w3.org/2000/svg">
<g id="Arrow - Left 2">
<path id="Arrow - Left 2_2" d="M0.298872 3.34025C0.331832 3.30642 0.456284 3.16175 0.572212 3.04275C1.25187 2.29433 3.02488 1.06933 3.95287 0.695417C4.09381 0.635333 4.45011 0.508167 4.64049 0.5C4.8229 0.5 4.99679 0.542 5.16273 0.627167C5.36958 0.746167 5.53552 0.933417 5.62644 1.1545C5.68497 1.30792 5.7759 1.767 5.7759 1.77517C5.86682 2.27742 5.91683 3.0935 5.91683 3.99533C5.91683 4.85458 5.86682 5.63742 5.79238 6.14725C5.78385 6.15542 5.69293 6.72592 5.59348 6.92133C5.41107 7.27833 5.05476 7.5 4.67345 7.5H4.64049C4.39215 7.49125 3.86991 7.26958 3.86991 7.26142C2.99192 6.88692 1.25982 5.722 0.563688 4.94792C0.563688 4.94792 0.367633 4.749 0.282392 4.62475C0.149416 4.44625 0.0834961 4.22517 0.0834961 4.00408C0.0834961 3.75733 0.15794 3.5275 0.298872 3.34025Z" fill="#1C9080"/>
</g>
</svg>
