<svg width="25" height="30" viewBox="0 0 25 30" fill="none" xmlns="http://www.w3.org/2000/svg">
<path fill-rule="evenodd" clip-rule="evenodd" d="M14.1213 11.7989H16.8891C17.3088 11.7989 17.6386 11.4487 17.6386 11.0264C17.6386 10.5939 17.3088 10.254 16.8891 10.254H14.1213C13.7016 10.254 13.3719 10.5939 13.3719 11.0264C13.3719 11.4487 13.7016 11.7989 14.1213 11.7989ZM20.1766 6.44529C20.7861 6.44529 21.1858 6.66153 21.5855 7.13519C21.9852 7.60885 22.0551 8.28846 21.9652 8.90525L21.0159 15.6601C20.8361 16.9585 19.7569 17.9151 18.4879 17.9151H7.58639C6.25742 17.9151 5.15828 16.8659 5.04837 15.5067L4.12908 4.28189L2.62026 4.01417C2.22057 3.94209 1.94079 3.5405 2.01073 3.12862C2.08068 2.70748 2.47038 2.42843 2.88006 2.49124L5.2632 2.8609C5.60293 2.92371 5.85274 3.211 5.88272 3.5611L6.07257 5.86763C6.10254 6.19816 6.36234 6.44529 6.68209 6.44529H20.1766ZM7.42632 19.5424C6.58697 19.5424 5.9075 20.2426 5.9075 21.1076C5.9075 21.9624 6.58697 22.6626 7.42632 22.6626C8.25567 22.6626 8.93514 21.9624 8.93514 21.1076C8.93514 20.2426 8.25567 19.5424 7.42632 19.5424ZM18.6676 19.5424C17.8282 19.5424 17.1487 20.2426 17.1487 21.1076C17.1487 21.9624 17.8282 22.6626 18.6676 22.6626C19.4969 22.6626 20.1764 21.9624 20.1764 21.1076C20.1764 20.2426 19.4969 19.5424 18.6676 19.5424Z" fill="#1C2135"/>
<circle cx="21.5" cy="6.5" r="3" fill="#FF5B37" stroke="white"/>
</svg>
