<svg width="16" height="16" viewBox="0 0 16 16" fill="none" xmlns="http://www.w3.org/2000/svg">
<g id="Calling">
<path id="Stroke 1" fill-rule="evenodd" clip-rule="evenodd" d="M1.24246 2.65514C1.4797 2.26156 2.78764 0.832824 3.71967 0.875956C3.99852 0.899832 4.245 1.06774 4.44528 1.26337H4.44605C4.90513 1.71317 6.22231 3.41071 6.29626 3.76808C6.47881 4.64458 5.43354 5.14984 5.75321 6.03326C6.56816 8.02733 7.97238 9.43142 9.9674 10.2455C10.8501 10.5659 11.3554 9.52153 12.232 9.7033C12.5894 9.77801 14.2879 11.0943 14.737 11.5541V11.5541C14.9318 11.7536 15.1013 12.0008 15.1244 12.2796C15.1591 13.2617 13.6416 14.5872 13.3458 14.7566C12.648 15.2565 11.7375 15.2473 10.6275 14.7312C7.53024 13.4427 2.58043 8.5865 1.26788 5.37243C0.765657 4.26872 0.731765 3.35217 1.24246 2.65514Z" stroke="#8B5609" stroke-width="1.5" stroke-linecap="round" stroke-linejoin="round"/>
<path id="Path" d="M9.92383 1.0625C12.7003 1.37075 14.8926 3.56075 15.2046 6.3365" stroke="#8B5609" stroke-width="1.5" stroke-linecap="round" stroke-linejoin="round"/>
<path id="Path_2" d="M9.92383 3.71973C11.2513 3.97848 12.2886 5.01573 12.5473 6.34323" stroke="#8B5609" stroke-width="1.5" stroke-linecap="round" stroke-linejoin="round"/>
</g>
</svg>
